<?xml version="1.0" standalone="no"?><!DOCTYPE svg PUBLIC "-//W3C//DTD SVG 1.1//EN" "http://www.w3.org/Graphics/SVG/1.1/DTD/svg11.dtd"><svg t="1510458431600" class="icon" style="" viewBox="0 0 1024 1024" version="1.1" xmlns="http://www.w3.org/2000/svg" p-id="5971" xmlns:xlink="http://www.w3.org/1999/xlink" width="128" height="128"><defs><style type="text/css"></style></defs><path d="M217.6 384C128 384 57.6 313.6 57.6 224S128 64 217.6 64s160 70.4 160 160S300.8 384 217.6 384z m0-256c-57.6 0-96 44.8-96 96S160 320 217.6 320s96-44.8 96-96S268.8 128 217.6 128z" fill="#ffffff" p-id="5972"></path><path d="M409.6 428.8c-6.4 0-12.8 0-19.2-6.4L288 339.2c-12.8-12.8-12.8-32 0-44.8 12.8-12.8 32-19.2 44.8-6.4l96 83.2c12.8 12.8 12.8 32 0 44.8-6.4 6.4-12.8 12.8-19.2 12.8zM710.4 422.4c-6.4 0-19.2-6.4-25.6-12.8-12.8-12.8-12.8-32 6.4-44.8l70.4-57.6c12.8-12.8 32-12.8 44.8 6.4 12.8 12.8 12.8 32-6.4 44.8l-70.4 57.6c-6.4 6.4-12.8 6.4-19.2 6.4zM339.2 736c-6.4 0-19.2-6.4-25.6-12.8-12.8-12.8-12.8-32 0-44.8l83.2-70.4c12.8-12.8 32-12.8 44.8 0 12.8 12.8 12.8 32 0 44.8l-83.2 70.4c-6.4 12.8-12.8 12.8-19.2 12.8zM761.6 736c-6.4 0-12.8 0-19.2-6.4l-96-83.2c-12.8-12.8-12.8-32-6.4-44.8 12.8-12.8 32-12.8 44.8-6.4l96 83.2c12.8 12.8 12.8 32 6.4 44.8-6.4 6.4-12.8 12.8-25.6 12.8z" fill="#ffffff" p-id="5973"></path><path d="M217.6 960C128 960 57.6 889.6 57.6 800S128 640 217.6 640s160 70.4 160 160S300.8 960 217.6 960z m0-256c-51.2 0-96 44.8-96 96S160 896 217.6 896s96-44.8 96-96S268.8 704 217.6 704zM844.8 896c-70.4 0-128-57.6-128-128s57.6-128 128-128 128 57.6 128 128-57.6 128-128 128z m0-192c-38.4 0-64 25.6-64 64s25.6 64 64 64 64-25.6 64-64-32-64-64-64zM844.8 358.4c-51.2 0-96-44.8-96-96s44.8-96 96-96 96 44.8 96 96-38.4 96-96 96z m0-128c-19.2 0-32 12.8-32 32s12.8 32 32 32 32-12.8 32-32-12.8-32-32-32zM556.8 704c-108.8 0-192-83.2-192-192s83.2-192 192-192 192 83.2 192 192-89.6 192-192 192z m0-320c-70.4 0-128 57.6-128 128s57.6 128 128 128 128-57.6 128-128-57.6-128-128-128z" fill="#ffffff" p-id="5974"></path></svg>